<svg xmlns="http://www.w3.org/2000/svg" xmlns:xlink="http://www.w3.org/1999/xlink" fill="none" version="1.1" width="20" height="20" viewBox="0 0 20 20"><defs><clipPath id="master_svg0_1355_06108"><rect x="0" y="0" width="20" height="20" rx="0"/></clipPath></defs><g clip-path="url(#master_svg0_1355_06108)"><g style="opacity:0.25;"><rect x="1" y="1" width="18" height="18" rx="4" fill="#ACACAC" fill-opacity="1"/></g><g><path d="M10,15.475100000000001Q9.71924,15.475100000000001,9.56462,15.332699999999999Q9.41406,15.1903,9.41406,14.9298L9.41406,11.3125L7.448729999999999,11.3125Q6.48438,11.3125,5.91064,11.105Q5.33691,10.8934,5.09277,10.3807Q4.84863,9.868,4.84863,8.9647Q4.84863,8.03288,5.10905,7.5323899999999995Q5.37354,7.0319,5.9391300000000005,6.82845Q6.508789999999999,6.625,7.448729999999999,6.625L9.41406,6.625L9.41406,4.57829Q9.41406,4.3138,9.56462,4.16732Q9.71924,4.02083,10,4.02083Q10.268550000000001,4.02083,10.42725,4.16732Q10.58594,4.3138,10.58594,4.57829L10.58594,6.625L12.56348,6.625Q13.51562,6.625,14.0812,6.82845Q14.6509,7.0319,14.9072,7.5323899999999995Q15.1636,8.03288,15.1636,8.9647Q15.1636,9.868,14.895,10.3807Q14.6265,10.8934,14.0527,11.105Q13.479,11.3125,12.56348,11.3125L10.58594,11.3125L10.58594,14.9298Q10.58594,15.1903,10.42725,15.332699999999999Q10.268550000000001,15.475100000000001,10,15.475100000000001ZM10.58594,10.2708L12.56348,10.2708Q13.08838,10.2708,13.39762,10.1732Q13.71094,10.0715,13.8574,9.7866Q14.0039,9.5018,14.0039,8.9565Q14.0039,8.37467,13.8696,8.10205Q13.73535,7.82943,13.42204,7.748049999999999Q13.11279,7.66667,12.56348,7.66667L10.58594,7.66667L10.58594,10.2708ZM7.448729999999999,10.2708L9.41406,10.2708L9.41406,7.66667L7.448729999999999,7.66667Q6.91162,7.66667,6.59831,7.748049999999999Q6.28906,7.82943,6.15479,8.10205Q6.02051,8.37467,6.02051,8.9565Q6.02051,9.5018,6.142580000000001,9.7866Q6.26465,10.0715,6.56982,10.1732Q6.875,10.2708,7.448729999999999,10.2708Z" fill="#ACACAC" fill-opacity="1"/><path d="M9.429120000000001,15.479800000000001Q9.641169999999999,15.6751,10,15.6751Q10.34514,15.6751,10.56083,15.4815Q10.78594,15.279499999999999,10.78594,14.9298L10.78594,11.5125L12.56348,11.5125Q13.51407,11.5125,14.1219,11.2926Q14.7679,11.0544,15.0722,10.4735Q15.3636,9.9172,15.3636,8.9647Q15.3636,7.984640000000001,15.0852,7.44121Q14.7928,6.8702000000000005,14.1489,6.64026Q13.55051,6.425,12.56348,6.425L10.78594,6.425L10.78594,4.57829Q10.78594,4.22624,10.562899999999999,4.02036Q10.34675,3.82083,10,3.82083Q9.63954,3.82083,9.425139999999999,4.02397Q9.21406,4.22935,9.21406,4.57829L9.21406,6.425L7.448729999999999,6.425Q6.47414,6.425,5.87143,6.64026Q5.23292,6.86994,4.93163,7.44007Q4.648633,7.98396,4.648633,8.9647Q4.648633,9.9132,4.9122,10.4667Q5.19134,11.0529,5.84262,11.2931Q6.4493100000000005,11.5125,7.448729999999999,11.5125L9.21406,11.5125L9.21406,14.9298Q9.21406,15.276399999999999,9.429120000000001,15.479800000000001ZM9.21406,11.3125L9.41406,11.3125L9.41406,14.9298Q9.41406,15.1903,9.56462,15.332699999999999Q9.71924,15.475100000000001,10,15.475100000000001Q10.268550000000001,15.475100000000001,10.42725,15.332699999999999Q10.58594,15.1903,10.58594,14.9298L10.58594,11.3125L12.56348,11.3125Q13.479,11.3125,14.0527,11.105Q14.6265,10.8934,14.895,10.3807Q15.1636,9.868,15.1636,8.9647Q15.1636,8.03288,14.9072,7.5323899999999995Q14.6509,7.0319,14.0812,6.82845Q13.51562,6.625,12.56348,6.625L10.58594,6.625L10.58594,4.57829Q10.58594,4.3138,10.42725,4.16732Q10.268550000000001,4.02083,10,4.02083Q9.71924,4.02083,9.56462,4.16732Q9.41406,4.3138,9.41406,4.57829L9.41406,6.625L7.448729999999999,6.625Q6.508789999999999,6.625,5.9391300000000005,6.82845Q5.37354,7.0319,5.10905,7.5323899999999995Q4.84863,8.03288,4.84863,8.9647Q4.84863,9.868,5.09277,10.3807Q5.33691,10.8934,5.91064,11.105Q6.48438,11.3125,7.448729999999999,11.3125L9.21406,11.3125ZM9.21406,10.2708L7.448729999999999,10.2708Q6.875,10.2708,6.56982,10.1732Q6.26465,10.0715,6.142580000000001,9.7866Q6.02051,9.5018,6.02051,8.9565Q6.02051,8.37467,6.15479,8.10205Q6.28906,7.82943,6.59831,7.748049999999999Q6.91162,7.66667,7.448729999999999,7.66667L9.41406,7.66667L9.41406,10.2708L9.21406,10.2708ZM9.21406,10.0708L7.448729999999999,10.0708Q6.906219999999999,10.0708,6.63307,9.9834Q6.4131,9.9101,6.32641,9.7078Q6.22051,9.4607,6.22051,8.9565Q6.22051,8.42126,6.3342,8.19042Q6.428179999999999,7.99963,6.64859,7.94162Q6.93717,7.866669999999999,7.448729999999999,7.866669999999999L9.21406,7.866669999999999L9.21406,10.0708ZM12.56348,10.0708L10.78594,10.0708L10.78594,7.866669999999999L12.56348,7.866669999999999Q13.08692,7.866669999999999,13.37176,7.94162Q13.59641,7.999980000000001,13.69021,8.19042Q13.8039,8.42126,13.8039,8.9565Q13.8039,9.4534,13.67956,9.6952Q13.57078,9.9067,13.3374,9.9825Q13.05755,10.0708,12.56348,10.0708ZM10.78594,7.66667L12.56348,7.66667Q13.11279,7.66667,13.42204,7.748049999999999Q13.73535,7.82943,13.8696,8.10205Q14.0039,8.37467,14.0039,8.9565Q14.0039,9.5018,13.8574,9.7866Q13.71094,10.0715,13.39762,10.1732Q13.08838,10.2708,12.56348,10.2708L10.58594,10.2708L10.58594,7.66667L10.78594,7.66667Z" fill-rule="evenodd" fill="#ACACAC" fill-opacity="1"/></g></g></svg>