<svg xmlns="http://www.w3.org/2000/svg" xmlns:xlink="http://www.w3.org/1999/xlink" fill="none" version="1.1" width="20" height="20" viewBox="0 0 20 20"><defs><clipPath id="master_svg0_1355_06603"><rect x="0" y="0" width="20" height="20" rx="0"/></clipPath></defs><g clip-path="url(#master_svg0_1355_06603)"><g style="opacity:0.25;"><rect x="1" y="1" width="18" height="18" rx="4" fill="#ACACAC" fill-opacity="1"/></g><g><path d="M9.52393,14.6979Q8.49854,14.6979,7.83122,14.5636Q7.16797,14.4294,6.777340000000001,14.0754Q6.38672,13.7173,6.2198899999999995,13.0744Q6.05713,12.4274,6.05713,11.4102L6.05713,8.10205Q6.05713,7.0847999999999995,6.2198899999999995,6.43376Q6.38672,5.78271,6.777340000000001,5.43278Q7.16797,5.08285,7.83122,4.9445Q8.49854,4.80208,9.52393,4.80208L10.48828,4.80208Q11.513670000000001,4.80208,12.17692,4.9445Q12.84424,5.08285,13.23486,5.43278Q13.62549,5.78271,13.7842,6.43376Q13.9429,7.0847999999999995,13.9429,8.10205L13.9429,11.4102Q13.9429,12.4274,13.7842,13.0744Q13.62549,13.7173,13.23486,14.0754Q12.84424,14.4294,12.17692,14.5636Q11.513670000000001,14.6979,10.48828,14.6979L9.52393,14.6979ZM9.52393,13.6562L10.48828,13.6562Q11.196290000000001,13.6562,11.64795,13.5789Q12.09961,13.4976,12.33561,13.2697Q12.57568,13.0378,12.6652,12.6064Q12.75879,12.1751,12.75879,11.4712L12.75879,10.2708L7.241210000000001,10.2708L7.241210000000001,11.4712Q7.241210000000001,12.1751,7.33073,12.6064Q7.42432,13.0378,7.66846,13.2697Q7.9126,13.4976,8.36426,13.5789Q8.81592,13.6562,9.52393,13.6562ZM7.241210000000001,9.2292L12.75879,9.2292L12.75879,8.15495Q12.75879,7.4021799999999995,12.6652,6.95459Q12.57568,6.507,12.33561,6.26693Q12.09961,6.02279,11.64795,5.93327Q11.196290000000001,5.84375,10.48828,5.84375L9.52393,5.84375Q8.81592,5.84375,8.36426,5.93327Q7.9126,6.02279,7.66846,6.26693Q7.42432,6.507,7.33073,6.95459Q7.241210000000001,7.4021799999999995,7.241210000000001,8.15495L7.241210000000001,9.2292Z" fill="#ACACAC" fill-opacity="1"/><path d="M7.79176,14.759699999999999Q8.47861,14.8979,9.52393,14.8979L10.48828,14.8979Q11.533719999999999,14.8979,12.21637,14.759699999999999Q12.93772,14.6146,13.37001,14.2228Q13.8052,13.8239,13.9784,13.122Q14.1429,12.4516,14.1429,11.4102L14.1429,8.10205Q14.1429,7.06077,13.9785,6.38639Q13.8051,5.67512,13.36831,5.28381Q12.93758,4.89794,12.21891,4.74896Q11.5349,4.60209,10.48828,4.60208L9.52393,4.60208Q8.47743,4.60209,7.79038,4.74871Q7.07454,4.89803,6.64389,5.28381Q6.20805,5.67426,6.02586,6.38525Q5.85713,7.060180000000001,5.85713,8.10205L5.85713,11.4102Q5.85713,12.4522,6.0263,13.1246Q6.20798,13.8248,6.64304,14.2236Q7.0744,14.6145,7.79176,14.759699999999999ZM7.83122,14.5636Q8.49854,14.6979,9.52393,14.6979L10.48828,14.6979Q11.513670000000001,14.6979,12.17692,14.5636Q12.84424,14.4294,13.23486,14.0754Q13.62549,13.7173,13.7842,13.0744Q13.9429,12.4274,13.9429,11.4102L13.9429,8.10205Q13.9429,7.0847999999999995,13.7842,6.43376Q13.62549,5.78271,13.23486,5.43278Q12.84424,5.08285,12.17692,4.9445Q11.513670000000001,4.80208,10.48828,4.80208L9.52393,4.80208Q8.49854,4.80208,7.83122,4.9445Q7.16797,5.08285,6.777340000000001,5.43278Q6.38672,5.78271,6.2198899999999995,6.43376Q6.05713,7.0847999999999995,6.05713,8.10205L6.05713,11.4102Q6.05713,12.4274,6.2198899999999995,13.0744Q6.38672,13.7173,6.777340000000001,14.0754Q7.16797,14.4294,7.83122,14.5636ZM7.44121,9.2292L7.241210000000001,9.2292L7.241210000000001,8.15495Q7.241210000000001,7.4021799999999995,7.33073,6.95459Q7.42432,6.507,7.66846,6.26693Q7.9126,6.02279,8.36426,5.93327Q8.81592,5.84375,9.52393,5.84375L10.48828,5.84375Q11.196290000000001,5.84375,11.64795,5.93327Q12.09961,6.02279,12.33561,6.26693Q12.57568,6.507,12.6652,6.95459Q12.75879,7.4021799999999995,12.75879,8.15495L12.75879,9.2292L7.44121,9.2292ZM7.44121,9.0292L12.55879,9.0292L12.55879,8.15495Q12.55879,7.42286,12.46943,6.995520000000001Q12.39144,6.6056,12.19419,6.40835Q11.99932,6.2068,11.60907,6.12945Q11.17666,6.04375,10.48828,6.04375L9.52393,6.04375Q8.83555,6.04375,8.40314,6.12945Q8.01107,6.20716,7.80988,6.40835Q7.6076999999999995,6.60717,7.5265,6.995520000000001Q7.44121,7.421989999999999,7.44121,8.15495L7.44121,9.0292ZM10.48828,13.4563L9.52393,13.4563Q8.83291,13.4563,8.39972,13.3821Q8.00601,13.3112,7.80621,13.1247Q7.60671,12.9352,7.52656,12.5658Q7.44121,12.1546,7.44121,11.4712L7.44121,10.4708L12.55879,10.4708L12.55879,11.4712Q12.55879,12.1537,12.46937,12.5658Q12.39239,12.9368,12.19669,13.1258Q12.00438,13.3115,11.61421,13.3818Q11.1793,13.4562,10.48828,13.4563ZM12.55879,10.2708L12.75879,10.2708L12.75879,11.4712Q12.75879,12.1751,12.6652,12.6064Q12.57568,13.0378,12.33561,13.2697Q12.09961,13.4976,11.64795,13.5789Q11.196290000000001,13.6562,10.48828,13.6562L9.52393,13.6562Q8.81592,13.6562,8.36426,13.5789Q7.9126,13.4976,7.66846,13.2697Q7.42432,13.0378,7.33073,12.6064Q7.241210000000001,12.1751,7.241210000000001,11.4712L7.241210000000001,10.2708L12.55879,10.2708Z" fill-rule="evenodd" fill="#ACACAC" fill-opacity="1"/></g></g></svg>